#Comment line ignore any data following # character 
#Hierarchical Translation and Rotation (.htr) file 
[Header]	
#Header keywords are followed by a single value 
FileType HTR		#Single word string
DataType HTRS		#Translation followed by rotation and scale data
FileVersion 1		#integer
NumSegments 25		#integer
NumFrames 5		#integer
DataFrameRate 30		#integer, data frame rate in this file
EulerRotationOrder ZYX
CalibrationUnits mm
RotationUnits Degrees
GlobalAxisofGravity Y
BoneLengthAxis Y
ScaleFactor 1.00
[SegmentNames&Hierarchy]
#CHILD	PARENT
BN_Tick_Root GLOBAL
BN_Torso BN_Tick_Root
BN_L_Leg_Front01 BN_Torso
BN_L_Leg_Rear01 BN_Torso
BN_MetalTop BN_Torso
BN_Neck BN_Torso
BN_R_Leg_Front01 BN_Torso
BN_R_Leg_Rear01 BN_Torso
BN_Sack BN_Torso
BN_L_Leg_Front02 BN_L_Leg_Front01
BN_L_Leg_Front03 BN_L_Leg_Front02
BN_L_Leg_Rear02 BN_L_Leg_Rear01
BN_L_Leg_Rear03 BN_L_Leg_Rear02
BN_Head BN_Neck
BN_Needle BN_Head
BN_R_Leg_Front02 BN_R_Leg_Front01
BN_R_Leg_Front03 BN_R_Leg_Front02
BN_R_Leg_Rear02 BN_R_Leg_Rear01
BN_R_Leg_Rear03 BN_R_Leg_Rear02
BN_SackDef01 BN_Sack
BN_SackDef02 BN_Sack
BN_SackDef03 BN_Sack
BN_SackDef04 BN_Sack
BN_SackDef05 BN_Sack
BN_SackDef06 BN_Sack
[BasePosition]
#SegmentName Tx, Ty, Tz, Rx, Ry, Rz, BoneLength
BN_Tick_Root 0.000000 0.000000 0.000000 -90.000000 0.000000 0.000000 10.000000 
BN_Torso 0.000000 0.000000 0.000000 0.000000 0.000000 0.000000 10.000000 
BN_L_Leg_Front01 0.000000 0.000000 0.000000 0.000000 0.000000 0.000000 10.000000 
BN_L_Leg_Rear01 0.000000 0.000000 0.000000 0.000000 0.000000 0.000000 10.000000 
BN_MetalTop 0.000000 0.000000 0.000000 0.000000 0.000000 0.000000 10.000000 
BN_Neck 0.000000 0.000000 0.000000 0.000000 0.000000 0.000000 10.000000 
BN_R_Leg_Front01 0.000000 0.000000 0.000000 0.000000 0.000000 0.000000 10.000000 
BN_R_Leg_Rear01 0.000000 0.000000 0.000000 0.000000 0.000000 0.000000 10.000000 
BN_Sack 0.000000 0.000000 0.000000 0.000000 0.000000 0.000000 10.000000 
BN_L_Leg_Front02 0.000000 0.000000 0.000000 0.000000 0.000000 0.000000 10.000000 
BN_L_Leg_Front03 0.000000 0.000000 0.000000 0.000000 0.000000 0.000000 10.000000 
BN_L_Leg_Rear02 0.000000 0.000000 0.000000 0.000000 0.000000 0.000000 10.000000 
BN_L_Leg_Rear03 0.000000 0.000000 0.000000 0.000000 0.000000 0.000000 10.000000 
BN_Head 0.000000 0.000000 0.000000 0.000000 0.000000 0.000000 10.000000 
BN_Needle 0.000000 0.000000 0.000000 0.000000 0.000000 0.000000 10.000000 
BN_R_Leg_Front02 0.000000 0.000000 0.000000 0.000000 0.000000 0.000000 10.000000 
BN_R_Leg_Front03 0.000000 0.000000 0.000000 0.000000 0.000000 0.000000 10.000000 
BN_R_Leg_Rear02 0.000000 0.000000 0.000000 0.000000 0.000000 0.000000 10.000000 
BN_R_Leg_Rear03 0.000000 0.000000 0.000000 0.000000 0.000000 0.000000 10.000000 
BN_SackDef01 0.000000 0.000000 0.000000 0.000000 0.000000 0.000000 10.000000 
BN_SackDef02 0.000000 0.000000 0.000000 0.000000 0.000000 0.000000 10.000000 
BN_SackDef03 0.000000 0.000000 0.000000 0.000000 0.000000 0.000000 10.000000 
BN_SackDef04 0.000000 0.000000 0.000000 0.000000 0.000000 0.000000 10.000000 
BN_SackDef05 0.000000 0.000000 0.000000 0.000000 0.000000 0.000000 10.000000 
BN_SackDef06 0.000000 0.000000 0.000000 0.000000 0.000000 0.000000 10.000000 
#Beginning of Data. Separated by tabs
#Fr	Tx	Ty	Tz	Rx	Ry	Rz	SF
[BN_Tick_Root]
204 -669.114441 1881.173340 -0.001330 0.000000 -0.000000 -120.095779 1996.629028
205 -669.114441 1881.173340 -0.001330 0.000000 -0.000000 -120.095779 1996.629028
206 -669.114441 1881.173340 -0.001330 0.000000 -0.000000 -120.095779 1996.629028
207 -669.114441 1881.173340 -0.001330 0.000000 -0.000000 -120.095779 1996.629028
208 -669.114441 1881.173340 -0.001330 0.000000 -0.000000 -120.095779 1996.629028
[BN_Torso]
204 9.874344 47.334087 453.585541 -22.848822 -16.280054 1.570437 456.155518
205 9.874344 47.334091 453.585541 -22.848822 -16.280054 1.570437 456.155518
206 9.874344 47.334091 453.585541 -22.848820 -16.280052 1.570437 456.155518
207 9.874344 47.334095 453.585541 -22.848818 -16.280052 1.570437 456.155518
208 9.874344 47.334099 453.585541 -22.848829 -16.280056 1.570438 456.155518
[BN_L_Leg_Front01]
204 -68.477791 10.734189 -26.804373 -30.983419 43.021152 124.203125 74.316254
205 -68.477791 10.734189 -26.804373 -30.983412 43.021152 124.203125 74.316254
206 -68.477791 10.734189 -26.804373 -30.983429 43.021164 124.203140 74.316254
207 -68.477791 10.734189 -26.804373 -30.983412 43.021152 124.203125 74.316254
208 -68.477791 10.734189 -26.804373 -30.983442 43.021175 124.203156 74.316254
[BN_L_Leg_Rear01]
204 -72.133743 -73.994843 -18.268616 -76.030075 71.010986 150.291214 104.939293
205 -72.133743 -73.994843 -18.268616 -76.031311 71.010384 150.289993 104.939293
206 -72.133743 -73.994843 -18.268616 -76.032509 71.009766 150.288757 104.939293
207 -72.133743 -73.994843 -18.268616 -76.033730 71.009201 150.287567 104.939293
208 -72.133743 -73.994843 -18.268616 -76.034882 71.008522 150.286316 104.939293
[BN_MetalTop]
204 0.000008 13.737477 26.403606 90.002541 -19.812790 -89.999672 29.763546
205 0.000008 13.737477 26.403606 89.998573 -12.929121 -90.001572 29.763546
206 0.000008 13.737477 26.403606 89.998573 -12.929121 -90.001572 29.763546
207 0.000008 13.737477 26.403606 89.998573 -12.929121 -90.001572 29.763546
208 0.000008 13.737477 26.403606 89.998581 -12.929120 -90.001572 29.763546
[BN_Neck]
204 0.000014 95.233284 10.002091 -77.742767 -51.485817 89.997246 95.757088
205 0.000014 95.233284 10.002091 -75.885406 -49.651253 89.995850 95.757088
206 0.000014 95.233284 10.002091 -74.542465 -48.404472 90.000694 95.757088
207 0.000014 95.233284 10.002091 -73.883171 -47.946331 90.000511 95.757088
208 0.000014 95.233284 10.002091 -73.710175 -47.946922 90.001602 95.757088
[BN_R_Leg_Front01]
204 68.477768 10.734107 -26.804314 90.788200 50.378716 79.533279 74.316193
205 68.477768 10.734107 -26.804314 90.788200 50.378723 79.533279 74.316193
206 68.477768 10.734107 -26.804314 90.788185 50.378716 79.533264 74.316193
207 68.477768 10.734107 -26.804314 90.788185 50.378716 79.533264 74.316193
208 68.477768 10.734107 -26.804314 90.788200 50.378723 79.533279 74.316193
[BN_R_Leg_Rear01]
204 72.133751 -73.994873 -18.268644 52.103573 70.326088 92.325287 104.939331
205 72.133751 -73.994873 -18.268644 52.104969 70.325676 92.326721 104.939331
206 72.133751 -73.994873 -18.268644 52.106388 70.325272 92.328163 104.939331
207 72.133751 -73.994873 -18.268644 52.107750 70.324837 92.329536 104.939331
208 72.133751 -73.994873 -18.268644 52.109173 70.324455 92.330994 104.939331
[BN_Sack]
204 -0.000000 -78.024918 33.657791 90.004532 -7.844082 -86.906685 84.974907
205 -0.000000 -78.024918 33.657791 90.005753 -5.738731 -86.904114 84.974907
206 -0.000000 -78.024918 33.657791 90.007751 -3.904550 -86.898407 84.974907
207 -0.000000 -78.024918 33.657791 90.006134 -2.585638 -86.891823 84.974907
208 -0.000000 -78.024918 33.657791 90.009201 -1.722744 -86.886757 84.974907
[BN_L_Leg_Front02]
204 142.805023 -0.000015 -0.000104 -0.029647 0.768096 -137.669083 142.805023
205 142.805023 -0.000015 -0.000104 -0.029647 0.768096 -137.669083 142.805023
206 142.805023 -0.000015 -0.000104 -0.029647 0.768096 -137.669083 142.805023
207 142.805023 -0.000015 -0.000104 -0.029647 0.768096 -137.669083 142.805023
208 142.805023 -0.000015 -0.000104 -0.029647 0.768096 -137.669083 142.805023
[BN_L_Leg_Front03]
204 124.143021 -0.000045 0.000007 0.355033 -0.284946 140.851685 124.143021
205 124.143021 -0.000045 0.000007 0.355033 -0.284946 140.851685 124.143021
206 124.143021 -0.000045 0.000007 0.355033 -0.284946 140.851685 124.143021
207 124.143021 -0.000045 0.000007 0.355033 -0.284946 140.851685 124.143021
208 124.143021 -0.000045 0.000007 0.355033 -0.284946 140.851685 124.143021
[BN_L_Leg_Rear02]
204 139.939041 0.000075 -0.000022 -0.033977 -0.247802 129.288040 139.939041
205 139.939041 0.000075 -0.000022 -0.033977 -0.247802 129.288025 139.939041
206 139.939041 0.000075 -0.000022 -0.033977 -0.247802 129.288025 139.939041
207 139.939041 0.000075 -0.000022 -0.033977 -0.247802 129.288025 139.939041
208 139.939041 0.000075 -0.000022 -0.033977 -0.247802 129.288025 139.939041
[BN_L_Leg_Rear03]
204 142.839615 0.000179 -0.000060 0.001066 -0.002091 -144.037750 142.839615
205 142.839615 0.000179 -0.000060 0.001066 -0.002091 -144.037750 142.839615
206 142.839615 0.000179 -0.000060 0.001066 -0.002091 -144.037750 142.839615
207 142.839615 0.000179 -0.000060 0.001066 -0.002091 -144.037750 142.839615
208 142.839615 0.000179 -0.000060 0.001066 -0.002091 -144.037750 142.839615
[BN_Head]
204 57.062447 -0.000030 0.000000 1.958492 -1.935757 33.253506 57.062447
205 57.062447 -0.000030 0.000000 2.063128 -2.210062 31.744040 57.062447
206 57.062447 -0.000030 0.000000 2.180616 -2.397404 30.697090 57.062447
207 57.062447 -0.000030 0.000000 2.332318 -2.468606 30.257847 57.062447
208 57.062447 -0.000030 0.000000 2.417025 -2.467967 30.206980 57.062447
[BN_Needle]
204 37.749565 174.090042 0.000000 0.000003 0.000030 87.896805 178.135834
205 38.424030 192.455963 -0.000000 0.000003 0.000030 87.896805 196.254196
206 38.881752 204.917572 -0.000019 0.000003 0.000030 87.896805 208.573715
207 39.050312 209.508316 0.000019 0.000003 0.000030 87.896805 213.116531
208 39.050312 209.508316 0.000016 0.000003 0.000030 87.896805 213.116531
[BN_R_Leg_Front02]
204 142.804947 -0.000060 0.000060 -0.131298 0.485230 110.230537 142.804947
205 142.804947 -0.000060 0.000060 -0.131298 0.485230 110.230537 142.804947
206 142.804947 -0.000060 0.000060 -0.131298 0.485230 110.230522 142.804947
207 142.804947 -0.000060 0.000060 -0.131298 0.485230 110.230537 142.804947
208 142.804947 -0.000060 0.000060 -0.131298 0.485230 110.230537 142.804947
[BN_R_Leg_Front03]
204 124.143005 -0.000060 -0.000156 -0.353932 -0.390495 -119.084160 124.143005
205 124.143005 -0.000060 -0.000156 -0.353932 -0.390495 -119.084160 124.143005
206 124.143005 -0.000060 -0.000156 -0.353932 -0.390495 -119.084160 124.143005
207 124.143005 -0.000060 -0.000156 -0.353932 -0.390495 -119.084160 124.143005
208 124.143005 -0.000060 -0.000156 -0.353932 -0.390495 -119.084160 124.143005
[BN_R_Leg_Rear02]
204 139.939011 -0.000149 0.000015 -0.049170 -0.233777 -103.818916 139.939011
205 139.939011 -0.000149 0.000015 -0.049170 -0.233777 -103.818909 139.939011
206 139.939011 -0.000149 0.000015 -0.049170 -0.233777 -103.818916 139.939011
207 139.939011 -0.000149 0.000015 -0.049170 -0.233777 -103.818916 139.939011
208 139.939011 -0.000149 0.000015 -0.049170 -0.233777 -103.818916 139.939011
[BN_R_Leg_Rear03]
204 142.839417 0.000075 0.000119 0.002250 -0.000670 123.159950 142.839417
205 142.839417 0.000075 0.000119 0.002250 -0.000670 123.159935 142.839417
206 142.839417 0.000075 0.000119 0.002250 -0.000670 123.159950 142.839417
207 142.839417 0.000075 0.000119 0.002250 -0.000670 123.159950 142.839417
208 142.839417 0.000075 0.000119 0.002250 -0.000670 123.159950 142.839417
[BN_SackDef01]
204 249.782272 -3.760844 42.949425 -128.408218 -44.374973 -11.740845 253.475800
205 249.782272 -3.760844 42.949425 -128.408218 -44.374973 -11.740845 253.475800
206 249.782272 -3.760844 42.949425 -128.408218 -44.374973 -11.740845 253.475800
207 249.782272 -3.760844 42.949425 -128.408218 -44.374973 -11.740845 253.475800
208 249.782272 -3.760844 42.949425 -128.408218 -44.374973 -11.740845 253.475800
[BN_SackDef02]
204 138.789795 -62.131748 45.674385 32.077126 -27.375721 -88.781525 158.773758
205 138.789795 -62.131748 45.674385 32.077126 -27.375721 -88.781525 158.773758
206 138.789795 -62.131748 45.674385 32.077126 -27.375721 -88.781525 158.773758
207 138.789795 -62.131748 45.674385 32.077126 -27.375721 -88.781525 158.773758
208 138.789795 -62.131748 45.674385 32.077126 -27.375721 -88.781525 158.773758
[BN_SackDef03]
204 249.782272 -3.760785 -42.949661 18.144459 44.375008 -11.740894 253.475845
205 249.782272 -3.760785 -42.949661 18.144459 44.375008 -11.740894 253.475845
206 249.782272 -3.760785 -42.949661 18.144459 44.375008 -11.740894 253.475845
207 249.782272 -3.760785 -42.949661 18.144459 44.375008 -11.740894 253.475845
208 249.782272 -3.760785 -42.949661 18.144459 44.375008 -11.740894 253.475845
[BN_SackDef04]
204 138.789780 -62.131645 -45.674473 146.059982 27.375723 -88.781555 158.773743
205 138.789780 -62.131645 -45.674473 146.059982 27.375723 -88.781555 158.773743
206 138.789780 -62.131645 -45.674473 146.059982 27.375723 -88.781555 158.773743
207 138.789780 -62.131645 -45.674473 146.059982 27.375723 -88.781555 158.773743
208 138.789780 -62.131645 -45.674473 146.059982 27.375723 -88.781555 158.773743
[BN_SackDef05]
204 118.790161 46.167137 -63.831196 0.155741 51.314110 90.605110 142.537460
205 118.790161 46.167137 -63.831196 0.155741 51.314110 90.605110 142.537460
206 118.790161 46.167137 -63.831196 0.155741 51.314110 90.605110 142.537460
207 118.790161 46.167137 -63.831196 0.155741 51.314110 90.605110 142.537460
208 118.790161 46.167137 -63.831196 0.155741 51.314110 90.605110 142.537460
[BN_SackDef06]
204 118.790207 46.167194 63.831219 152.058487 -51.314072 90.605019 142.537537
205 118.790207 46.167194 63.831219 152.058487 -51.314072 90.605019 142.537537
206 118.790207 46.167194 63.831219 152.058487 -51.314072 90.605019 142.537537
207 118.790207 46.167194 63.831219 152.058487 -51.314072 90.605019 142.537537
208 118.790207 46.167194 63.831219 152.058487 -51.314072 90.605019 142.537537
